<svg width="37" height="24" viewBox="0 0 37 24" fill="none" xmlns="http://www.w3.org/2000/svg">
<path d="M11.9265 0L14.2775 3.4284H8.80268C7.66019 3.4284 6.78652 3.6744 6.18167 4.1676C5.57683 4.6608 5.27441 5.5116 5.27441 6.7224C5.27441 7.7976 5.61043 8.6268 6.28248 9.21C6.95453 9.7704 7.7946 10.05 8.80268 10.05H15.6564V5.4396L19.8555 11.562L15.6564 17.7048V13.074H8.23143C6.95453 13.074 5.96926 13.3992 5.27441 14.0484C4.55795 14.676 4.19912 15.5832 4.19912 16.7712C4.19912 17.9808 4.55795 18.9228 5.27441 19.5948C5.96926 20.244 6.95453 20.5692 8.23143 20.5692H13.6991L11.3553 23.9976H8.83628C7.29056 23.9976 5.95846 23.8296 4.83757 23.4936C3.71789 23.1348 2.79862 22.6644 2.08216 22.0824C1.36571 21.4776 0.838865 20.772 0.502839 19.9644C0.168013 19.1364 0 18.252 0 17.31C0 15.6744 0.380429 14.3184 1.14249 13.2432C1.90455 12.1452 3.02423 11.4396 4.50275 11.1252V11.058C3.40466 10.5876 2.5646 9.9264 1.98255 9.0744C1.37771 8.2008 1.07528 7.158 1.07528 5.9484C1.07528 3.954 1.72453 2.4636 3.02423 1.4784C4.32273 0.492 6.04726 0 8.19783 0H11.9265Z" fill="#03095B"/>
<path d="M14.7175 0H19.723L25.1667 8.4708L30.8455 0H35.5487L27.6197 11.5632L36.1199 24H31.0123L25.0323 14.8236L18.9502 24H14.145L22.6453 11.5632L14.7175 0Z" fill="#03095B"/>
</svg>
